<svg version="1.0" xmlns="http://www.w3.org/2000/svg"
 width="512.000000pt" height="512.000000pt" viewBox="0 0 512.000000 512.000000"
 preserveAspectRatio="xMidYMid meet">

<g transform="translate(0.000000,512.000000) scale(0.100000,-0.100000)"
fill="#000000" stroke="none">
<path d="M0 4240 c0 -531 4 -880 9 -880 5 0 24 -14 41 -32 53 -53 55 -85 35
-741 -5 -135 -3 -183 7 -195 10 -14 10 -15 -2 -4 -32 28 -40 14 -40 -68 0 -47
-4 -80 -10 -80 -5 0 -10 -18 -10 -40 0 -29 -4 -40 -15 -40 -13 0 -15 -127 -15
-1080 l0 -1080 1640 0 c1087 0 1640 3 1640 10 0 6 6 10 14 10 8 0 17 7 20 16
3 8 11 12 17 9 8 -5 8 -10 0 -18 -6 -6 -11 -15 -11 -19 0 -4 73 -8 161 -8
l161 0 -7 27 c-12 44 -17 160 -6 143 12 -22 31 -138 24 -155 -4 -13 88 -15
731 -15 l736 0 0 1054 0 1055 -22 7 c-48 15 -106 64 -118 99 -10 31 -29 48
-30 28 -1 -21 -33 -46 -70 -54 -60 -14 -240 5 -289 31 l-39 20 -49 -35 c-39
-29 -323 -175 -340 -175 -5 0 -59 -25 -195 -89 -48 -22 -99 -43 -113 -47 -14
-3 -30 -14 -35 -23 -5 -9 -10 -11 -10 -6 -1 6 -5 1 -10 -10 -8 -18 -9 -18 -10
5 -2 18 -4 14 -10 -15 -5 -22 -4 -80 2 -130 31 -277 -45 -1087 -128 -1362 -17
-58 -41 -74 -30 -21 4 18 14 70 22 116 13 72 26 133 76 347 5 22 11 164 12
315 l4 275 -15 -115 c-8 -64 -12 -151 -9 -196 3 -48 1 -85 -5 -91 -11 -11 -21
-77 -20 -132 0 -19 -5 -42 -12 -50 -8 -9 -19 -52 -26 -96 -7 -44 -17 -84 -22
-89 -5 -6 -9 -21 -9 -35 0 -19 -3 -22 -9 -12 -6 9 -10 5 -14 -15 -14 -69 -21
-90 -38 -113 -15 -18 -19 -20 -19 -7 0 24 -18 19 -22 -7 -2 -15 -11 -23 -27
-25 -23 -4 -24 -3 -9 20 8 12 18 36 22 51 3 15 11 25 16 22 6 -4 10 9 10 29 0
20 4 36 9 36 14 0 29 75 32 155 1 22 8 49 15 60 8 13 13 49 12 100 0 51 3 80
11 83 6 2 11 21 11 42 0 21 5 40 10 42 6 2 13 41 17 88 6 76 5 84 -9 72 -9 -7
-18 -25 -21 -40 -20 -104 -83 -301 -100 -313 -5 -4 -6 -12 -3 -18 9 -14 -37
-109 -75 -158 -16 -20 -29 -41 -29 -47 0 -13 -36 -46 -50 -46 -6 0 -10 -4 -10
-10 0 -5 -8 -10 -18 -10 -13 0 -22 12 -31 40 -6 21 -19 46 -28 55 -12 12 -13
19 -4 28 6 6 11 36 10 67 -1 54 -1 54 -11 20 -6 -19 -13 -29 -15 -23 -3 7 3
35 12 63 9 27 14 54 11 59 -4 5 -3 11 1 13 5 1 23 48 42 103 19 55 37 105 42
110 8 10 26 58 59 155 10 30 21 63 25 72 14 34 -11 18 -30 -20 l-19 -37 -7 89
c-4 49 -12 99 -18 110 -14 32 -61 174 -61 189 0 8 4 7 11 -3 9 -12 10 -11 6 8
-3 12 -1 22 4 22 5 0 9 -10 10 -22 1 -20 2 -20 9 5 12 41 48 112 72 142 11 14
18 28 16 31 -3 2 20 30 51 60 30 31 56 53 58 47 2 -5 -3 -30 -11 -55 -7 -26
-10 -52 -5 -59 4 -7 10 -11 12 -9 12 15 37 77 43 106 3 19 10 34 15 34 5 0 9
15 9 34 0 47 9 66 31 66 19 0 24 14 20 57 -1 12 5 39 14 59 17 41 19 58 4 32
-5 -10 -18 -22 -29 -28 -17 -9 -18 -7 -13 47 5 48 4 55 -9 50 -15 -5 -47 29
-61 66 -4 9 -15 20 -24 24 -10 4 -24 15 -32 26 -10 14 -21 18 -43 13 -18 -3
-27 -2 -23 4 3 6 2 10 -4 10 -5 0 -13 -4 -16 -10 -3 -5 -1 -10 4 -10 6 0 11
-13 11 -29 0 -17 5 -33 11 -36 6 -5 4 -11 -6 -19 -19 -13 -48 -86 -75 -186
-10 -36 -19 -60 -20 -55 -2 15 -36 -123 -44 -178 -4 -27 -10 -59 -13 -70 -3
-12 -5 -30 -5 -39 1 -23 -18 -34 -29 -17 -14 22 -11 56 17 170 14 59 24 122
22 141 l-3 33 -28 -49 c-15 -27 -27 -55 -27 -64 0 -51 -14 20 -44 223 -4 27
-2 -33 8 -369 2 -64 7 -101 14 -104 7 -2 12 -12 12 -22 0 -11 6 -23 13 -27 18
-10 52 -102 49 -128 -2 -15 0 -16 6 -7 7 10 12 6 20 -15 50 -128 65 -293 27
-293 -8 0 -21 -23 -30 -51 -12 -36 -20 -47 -26 -38 -6 10 -9 7 -9 -12 0 -28
-25 -85 -47 -107 -7 -7 -13 -20 -13 -28 0 -8 -3 -14 -8 -14 -4 0 -15 -18 -25
-40 -9 -23 -21 -39 -25 -36 -11 6 -122 -101 -122 -117 0 -14 -49 -39 -62 -31
-4 3 -6 10 -3 15 13 20 -7 30 -31 15 -14 -10 -46 -16 -84 -16 -33 0 -60 -4
-60 -10 0 -5 -18 -10 -40 -10 -22 0 -40 5 -40 10 0 24 -27 6 -44 -30 -20 -41
-34 -48 -53 -29 -6 6 -17 8 -24 3 -9 -5 -8 -9 7 -15 16 -6 13 -9 -20 -24 -32
-13 -40 -14 -47 -3 -5 7 -9 16 -9 21 0 4 -11 7 -25 7 -14 0 -25 5 -25 10 0 6
-18 10 -40 10 -22 0 -40 -4 -40 -10 0 -5 -23 -10 -50 -10 -36 0 -52 -4 -56
-15 -11 -27 -44 -16 -87 28 -89 88 -108 99 -177 108 -78 9 -110 18 -110 30 0
5 -5 9 -11 9 -5 0 -31 16 -56 35 -26 20 -57 38 -70 41 -14 4 -23 14 -23 25 0
10 -7 19 -15 19 -8 0 -20 9 -27 20 -7 11 -17 20 -22 20 -12 0 -35 32 -36 49 0
7 -13 30 -28 50 -36 47 -59 104 -66 166 -4 28 -11 52 -17 53 -6 3 -5 10 3 20
12 14 25 62 42 152 5 27 4 30 -3 14 -5 -12 -14 -25 -19 -28 -6 -3 1 16 14 44
13 27 24 58 25 67 1 12 4 9 8 -7 6 -21 9 -18 15 24 5 35 10 45 17 35 6 -10 9
-6 10 16 0 26 2 28 10 10 8 -17 9 -16 4 7 -4 20 3 34 26 59 16 18 33 45 36 61
3 16 10 31 14 34 5 3 9 17 9 32 0 15 10 47 21 72 12 25 22 63 24 85 1 22 8 53
16 69 11 23 11 30 1 34 -6 2 -12 17 -12 34 0 26 2 29 15 18 13 -10 15 -9 15 9
0 11 -4 21 -10 21 -5 0 -10 18 -10 40 0 27 -4 40 -14 40 -10 0 -16 -22 -21
-77 -4 -43 -10 -80 -14 -83 -4 -3 -17 -39 -31 -80 -13 -41 -27 -80 -32 -86 -4
-6 -14 -29 -22 -50 -29 -78 -19 10 24 221 25 123 45 172 74 179 13 3 28 17 34
31 14 30 17 30 67 5 22 -11 45 -20 52 -20 19 0 16 -28 -4 -33 -10 -3 -2 -5 17
-6 37 -1 100 -33 100 -51 0 -5 7 -10 15 -10 9 0 18 -6 21 -14 3 -8 16 -17 29
-20 13 -3 31 -13 39 -22 15 -15 36 -12 36 6 0 5 -7 15 -15 23 -21 21 -31 67
-14 67 36 -2 151 -50 189 -80 78 -62 175 -110 221 -110 41 0 142 47 133 61 -5
9 -2 10 9 6 20 -7 22 4 5 21 -8 8 -9 12 -1 12 6 0 13 -5 15 -12 5 -13 106 39
144 74 l21 19 6 -54 c7 -69 41 -141 73 -156 40 -18 49 -13 24 13 -27 30 -28
58 -4 122 27 71 74 162 74 144 1 -8 8 2 17 22 8 21 18 36 22 34 10 -6 7 58 -3
66 -13 9 51 36 149 64 44 12 72 23 63 23 -21 1 -117 -23 -179 -46 -55 -19 -75
-14 -81 21 -7 35 2 39 52 21 54 -19 63 -18 25 2 l-30 16 50 14 c144 40 168 63
228 223 20 52 45 118 56 145 12 28 26 70 32 95 10 41 12 43 20 22 5 -13 7 -27
5 -30 -2 -4 -7 -42 -10 -85 -3 -42 -10 -85 -16 -95 -11 -16 -11 -16 -6 1 4 11
2 16 -5 12 -5 -4 -7 -15 -4 -24 3 -10 -1 -31 -10 -47 -8 -16 -15 -38 -14 -49
0 -15 4 -12 12 10 7 17 22 46 33 65 12 19 25 48 28 64 4 17 16 42 27 57 11 15
25 56 32 91 l13 63 17 -49 c24 -70 22 -162 -4 -205 -11 -18 -18 -35 -16 -38 5
-4 51 48 66 75 5 9 12 14 16 10 15 -15 5 -88 -19 -143 -32 -72 -10 -53 33 29
25 47 31 71 31 120 0 116 -62 308 -120 371 -18 19 -44 155 -31 155 4 0 34 -55
68 -122 61 -121 103 -237 103 -284 0 -13 5 -24 10 -24 13 0 12 13 -5 85 -14
61 -70 213 -101 274 -9 19 -19 48 -20 65 -5 38 -43 144 -56 152 -11 7 1 -46
15 -64 14 -18 -1 -28 -18 -11 -10 11 -87 214 -96 257 -3 15 -13 40 -45 116
-19 44 -34 81 -34 83 0 3 15 -8 34 -24 39 -32 93 -109 120 -171 l19 -43 19 28
c10 16 18 37 18 48 0 15 -3 17 -9 7 -7 -11 -10 -10 -15 3 -9 24 -8 27 6 19 7
-5 8 -3 4 5 -5 7 -10 10 -13 7 -3 -3 -27 29 -53 72 -41 67 -49 89 -60 167 -7
50 -21 106 -33 127 -27 50 -34 41 -8 -10 22 -44 38 -140 27 -168 -6 -15 -11
-13 -41 16 -19 19 -35 30 -35 25 0 -5 -7 1 -16 13 -8 12 -21 22 -28 22 -19 0
-26 23 -26 83 0 60 -18 127 -40 148 -44 41 -200 139 -200 125 0 -3 30 -23 68
-45 71 -42 132 -94 133 -114 0 -7 3 -44 7 -83 l8 -72 -56 36 c-30 19 -88 52
-129 73 l-73 38 -4 68 c-6 105 -8 117 -24 131 -16 15 -19 15 35 -3 11 -3 0 6
-25 20 l-45 26 40 -5 c38 -5 39 -4 15 8 -116 61 -426 37 -682 -53 -75 -26
-191 -94 -244 -143 -23 -21 -48 -37 -55 -36 -8 2 -13 -5 -13 -14 1 -10 -2 -15
-7 -12 -5 3 -18 -5 -28 -18 -34 -42 -32 -12 5 68 50 110 52 114 59 159 l7 40
-35 -33 c-19 -19 -43 -51 -53 -73 -11 -21 -22 -39 -26 -39 -5 0 -8 -5 -8 -12
0 -6 -7 -20 -16 -29 -9 -10 -18 -29 -19 -41 -1 -13 -3 -27 -4 -32 0 -5 -8 -3
-16 4 -26 22 -15 151 20 226 8 18 32 46 52 63 21 17 45 38 54 46 9 8 20 15 26
15 5 0 20 11 32 24 17 18 19 25 9 29 -9 3 -7 10 10 22 27 20 82 78 82 86 0 4
11 10 24 13 14 3 31 12 38 19 7 7 38 23 68 35 54 22 54 22 15 17 -22 -3 -60
-8 -85 -11 l-45 -5 70 31 c125 56 284 80 393 61 86 -16 227 -64 325 -111 187
-89 351 -244 468 -442 18 -31 35 -56 36 -54 10 9 -140 249 -172 276 -8 7 -15
17 -15 22 0 5 21 -12 46 -37 51 -50 56 -53 47 -27 -5 15 -4 15 9 -1 15 -19 75
-30 81 -14 1 5 41 -1 87 -13 47 -12 135 -28 197 -35 62 -7 116 -16 122 -19 5
-3 44 -9 87 -12 44 -3 87 -10 96 -15 9 -5 37 -9 62 -9 25 0 51 -6 59 -14 8 -8
53 -20 103 -26 175 -22 209 -28 234 -37 14 -6 53 -13 87 -17 85 -9 185 -31
213 -46 13 -7 46 -12 74 -12 28 0 71 -6 96 -13 25 -7 64 -16 87 -19 23 -3 48
-9 57 -12 14 -6 16 35 16 425 l0 431 -2560 0 -2560 0 0 -880z m2922 277 c30
-24 36 -36 42 -82 3 -30 2 -65 -4 -79 -9 -24 -14 -26 -67 -25 -32 1 -85 4
-118 8 l-59 6 -13 63 c-7 34 -18 72 -24 85 -7 12 -13 31 -15 42 -2 19 3 20
110 15 105 -5 115 -7 148 -33z m-270 -39 c29 -104 32 -138 15 -138 -8 0 -66
-16 -128 -35 -63 -19 -117 -35 -121 -35 -4 0 -12 26 -18 58 -7 31 -18 78 -25
104 l-13 47 57 17 c69 20 169 42 196 43 17 1 23 -11 37 -61z m-307 -65 c4 -27
13 -73 21 -103 8 -30 11 -57 6 -61 -4 -4 -29 -19 -57 -34 -27 -15 -68 -39 -90
-55 -22 -15 -43 -26 -47 -24 -12 8 -36 104 -41 166 l-5 56 47 30 c62 41 144
81 152 76 4 -2 10 -25 14 -51z m-221 -247 c17 -58 17 -60 -2 -75 -89 -72 -92
-74 -107 -61 -18 15 -38 86 -32 111 3 11 1 21 -3 24 -13 8 14 53 67 114 l48
55 6 -55 c3 -29 14 -81 23 -113z m639 82 c-3 -18 -8 -34 -12 -36 -4 -1 -6 -16
-3 -32 2 -16 -3 -43 -12 -61 -9 -18 -16 -39 -16 -47 0 -9 -3 -12 -7 -8 -5 4
-8 11 -8 15 0 11 -32 41 -43 41 -6 0 -13 -6 -16 -12 -4 -7 -5 -4 -2 8 2 12 -1
29 -6 38 -7 12 -5 22 4 33 11 14 11 16 -2 8 -8 -5 -23 -20 -34 -33 -12 -15
-22 -20 -28 -14 -14 14 -20 100 -7 108 15 9 97 21 151 23 l46 1 -5 -32z m174
5 c40 -9 87 -24 104 -35 31 -19 31 -20 24 -75 -4 -31 -13 -70 -20 -87 -8 -17
-16 -40 -20 -50 -3 -10 -8 -16 -12 -13 -3 4 -1 19 5 34 6 15 13 48 17 73 l6
45 -30 -65 c-30 -63 -30 -64 -32 -30 0 19 -3 28 -6 20 -4 -9 -10 -1 -17 24
-12 43 -32 57 -39 29 -3 -10 -2 3 0 30 5 43 4 47 -16 47 -12 0 -21 6 -21 15 0
17 -9 19 -28 6 -10 -6 -9 -10 7 -14 29 -7 27 -60 -5 -117 -14 -25 -23 -37 -20
-27 4 13 0 20 -13 24 -27 7 -33 27 -35 114 l-2 77 40 -5 c23 -2 73 -11 113
-20z m-387 -50 c0 -16 -7 -41 -15 -57 -8 -15 -16 -38 -16 -50 -1 -15 -3 -13
-8 9 -7 30 -7 30 -19 7 -7 -12 -10 -27 -6 -33 3 -6 -3 -5 -15 2 -19 12 -19 15
-4 31 9 10 13 21 10 24 -10 11 -66 -20 -70 -38 -4 -15 -9 -17 -32 -8 -15 6
-30 8 -33 5 -3 -3 0 -5 8 -5 10 0 10 -3 0 -15 -7 -8 -17 -15 -22 -15 -6 0 -8
7 -4 15 3 8 1 15 -4 15 -6 0 -10 -7 -10 -15 0 -8 -7 -15 -15 -15 -7 0 -18 -8
-24 -17 -20 -37 -22 -2 -2 39 17 35 33 49 85 76 54 28 159 67 189 71 4 1 7
-11 7 -26z m570 -42 c0 -5 9 -7 20 -4 14 4 24 -3 37 -26 10 -17 26 -34 36 -37
9 -3 17 -10 17 -15 0 -5 7 -9 16 -9 14 0 15 -14 12 -104 -1 -57 -6 -102 -10
-100 -3 2 -12 20 -18 39 -6 19 -15 35 -19 35 -5 0 -21 12 -36 26 -23 21 -25
28 -14 36 10 6 7 7 -10 3 -20 -6 -23 -4 -18 9 5 11 3 15 -5 10 -7 -5 -9 0 -6
14 4 12 2 22 -3 22 -5 0 -9 9 -9 21 0 11 4 18 8 15 12 -7 8 25 -6 52 -8 14 -9
22 -2 22 5 0 10 -4 10 -9z m-2192 -136 c-3 -29 -18 -34 -18 -7 0 17 8 32 17
32 1 0 2 -11 1 -25z m2362 -1 c0 -8 5 -14 10 -14 6 0 10 5 10 11 0 6 6 4 14
-3 16 -17 106 -237 106 -261 0 -9 5 -19 10 -22 6 -4 4 -12 -5 -22 -19 -18 -17
-20 -40 42 -10 28 -23 57 -30 65 -7 8 -16 29 -20 47 -3 17 -13 37 -21 44 -8 6
-14 17 -14 23 0 6 5 4 10 -4 14 -21 11 -1 -6 40 -12 31 -14 32 -10 8 4 -35
-11 -36 -24 -2 -13 33 -13 77 0 69 6 -3 10 -13 10 -21z m-1630 -201 c-24 -55
-25 -72 -4 -102 10 -14 14 -33 11 -50 -3 -15 0 -58 8 -95 l14 -68 -48 -91
c-26 -51 -58 -118 -72 -150 -29 -74 -35 -61 -15 37 12 54 16 136 16 288 1 250
6 286 48 327 19 19 33 46 38 73 8 41 8 39 16 -40 7 -73 6 -90 -12 -129z m524
182 c-4 -8 -8 -15 -10 -15 -2 0 -4 7 -4 15 0 8 4 15 10 15 5 0 7 -7 4 -15z
m-1248 -21 c40 -11 46 -97 51 -829 4 -498 2 -704 -7 -770 -6 -49 -11 -165 -10
-256 3 -232 -5 -245 -122 -205 -68 24 -220 63 -396 102 -84 18 -161 38 -172
44 -30 16 -27 80 4 117 14 16 24 38 23 49 -2 20 19 21 257 15 38 -1 72 2 75 6
3 4 22 9 41 11 51 4 59 18 19 36 -115 49 -138 57 -248 82 -92 20 -150 45 -176
74 -19 21 -20 39 -24 265 -5 397 26 945 61 1055 6 19 16 41 22 49 9 12 8 13
-3 7 -8 -6 -7 0 4 18 10 14 23 26 30 26 8 0 17 9 20 20 3 11 15 20 26 20 10 0
19 6 19 14 0 13 19 24 60 33 35 8 159 4 205 -7 58 -13 161 -4 178 16 13 14 31
17 63 8z m1225 -27 c-10 -9 -11 -8 -5 6 3 10 9 15 12 12 3 -3 0 -11 -7 -18z
m949 -19 c0 -44 -14 -78 -26 -66 -6 7 14 108 22 108 2 0 4 -19 4 -42z m119
-78 c0 -23 -1 -22 -14 9 -8 18 -12 38 -8 44 8 13 21 -19 22 -53z m-689 44 c0
-14 -39 -54 -45 -45 -3 6 2 19 12 31 17 19 33 26 33 14z m521 -136 c-18 -120
-25 -132 -74 -145 -24 -7 -55 -21 -70 -33 -31 -25 -37 -46 -8 -30 24 12 38 -4
22 -24 -6 -7 -7 -16 -3 -20 4 -5 -4 -6 -18 -4 -20 2 -26 -2 -28 -23 -2 -14 2
-37 7 -52 8 -21 17 -27 38 -26 18 1 21 3 10 6 -13 3 -17 13 -15 39 2 28 6 34
20 31 10 -3 18 -1 18 4 0 11 31 -1 48 -18 12 -11 8 -18 -18 -43 l-32 -30 25 0
c31 0 72 46 88 101 12 37 13 38 31 22 10 -9 16 -23 13 -30 -2 -8 0 -11 5 -8
21 13 22 -45 1 -80 -25 -44 -8 -46 34 -5 21 21 37 28 49 24 23 -9 15 -42 -40
-172 -24 -57 -44 -107 -44 -110 0 -4 11 10 25 30 14 20 25 40 25 44 0 4 8 13
18 21 9 8 11 12 5 8 -18 -9 -17 -3 12 65 14 33 25 71 25 85 0 14 5 25 11 25
17 0 3 -73 -21 -112 -24 -39 -26 -60 -4 -32 14 18 15 16 9 -21 -4 -22 -14 -49
-23 -59 -30 -35 -67 -65 -79 -66 -7 0 -13 -7 -13 -15 0 -24 -37 -91 -72 -131
-52 -59 -128 -110 -269 -179 -185 -91 -203 -90 -346 32 -29 25 -57 42 -63 38
-6 -4 -9 -2 -8 3 2 5 -33 45 -77 90 -89 88 -126 137 -150 197 l-16 40 25 -29
c13 -16 28 -26 34 -22 6 3 12 1 14 -4 2 -6 20 -13 40 -16 l37 -6 -42 44 c-58
61 -108 159 -113 222 l-5 51 41 -75 c22 -41 55 -87 72 -102 43 -36 57 -36 18
0 -43 38 -63 121 -57 236 3 60 9 91 18 97 11 6 17 -2 25 -34 14 -57 32 -87 49
-87 18 0 18 2 4 33 -8 17 -8 31 -1 42 9 17 11 16 30 -3 12 -12 28 -19 36 -16
8 3 17 1 21 -5 3 -6 1 -11 -4 -11 -6 0 -10 -5 -9 -12 2 -6 -8 -17 -22 -25 -25
-13 -25 -13 11 -13 34 0 38 3 58 49 24 56 26 82 9 99 -25 25 7 11 34 -15 15
-15 28 -22 28 -17 0 14 -31 57 -48 68 -12 7 -12 10 -1 17 8 4 19 3 26 -3 8 -7
13 -7 13 0 0 5 14 15 30 22 33 14 100 85 100 106 0 7 4 15 9 19 15 9 1 -65
-21 -108 -10 -21 -25 -40 -33 -44 -21 -8 -18 -23 4 -23 36 0 87 29 99 56 7 14
15 24 19 21 3 -4 0 -13 -7 -22 -7 -8 -14 -26 -15 -39 l-3 -24 48 18 c27 10 51
16 54 13 3 -3 24 10 48 28 43 33 39 22 -11 -35 l-26 -29 35 19 c19 10 67 51
107 91 64 64 69 67 46 30 -31 -52 -91 -116 -118 -127 -18 -8 -18 -9 6 -9 27
-1 75 30 115 75 31 35 94 130 94 142 0 4 5 13 12 20 24 24 32 -17 19 -100z
m228 -86 c-5 -2 -9 -20 -9 -40 0 -19 -3 -33 -6 -29 -8 8 -6 121 3 166 7 34 8
32 14 -29 4 -36 3 -66 -2 -68z m-195 91 c-10 -40 -14 -41 -14 -5 0 18 5 32 10
32 6 0 8 -11 4 -27z m56 -3 c0 -5 -4 -10 -10 -10 -5 0 -10 -7 -10 -17 0 -9 -3
-14 -6 -10 -8 8 5 47 17 47 5 0 9 -4 9 -10z m40 -24 c0 -3 -4 -8 -10 -11 -5
-3 -10 -1 -10 4 0 6 5 11 10 11 6 0 10 -2 10 -4z m-736 -41 c-10 -8 -23 -15
-28 -15 -6 0 -1 7 10 15 10 8 23 15 28 15 6 0 1 -7 -10 -15z m793 -134 c2
-118 1 -129 -15 -126 -9 2 -21 4 -26 4 -4 1 -6 10 -3 21 3 10 1 18 -3 17 -4
-1 -20 15 -34 36 l-27 39 35 38 c19 21 42 53 51 69 8 17 17 31 18 31 1 0 3
-58 4 -129z m-174 94 c-7 -21 -12 -19 -10 4 0 11 5 18 9 15 4 -3 5 -11 1 -19z
m-793 -31 c0 -13 -21 -44 -30 -44 -11 0 -14 33 -3 43 8 8 33 9 33 1z m90 -20
c0 -8 -5 -12 -10 -9 -6 4 -8 11 -5 16 9 14 15 11 15 -7z m913 -46 c-8 -46 -13
-48 -13 -5 0 21 4 37 10 37 5 0 7 -14 3 -32z m-951 -10 c-9 -9 -12 -7 -12 12
0 19 3 21 12 12 9 -9 9 -15 0 -24z m1245 -90 c-3 -8 -6 -5 -6 6 -1 11 2 17 5
13 3 -3 4 -12 1 -19z m-1923 -272 c-4 -12 -13 -30 -21 -41 -16 -22 -16 -21 3
78 7 31 7 31 16 8 4 -13 5 -33 2 -45z m1995 -96 c0 -10 -3 -8 -9 5 -12 27 -12
43 0 25 5 -8 9 -22 9 -30z m25 -101 l5 -54 -9 45 c-5 25 -12 56 -15 70 -4 19
-3 21 4 9 5 -8 12 -40 15 -70z m-1994 -49 c40 -65 47 -91 21 -75 -25 15 -86
145 -68 145 2 0 24 -32 47 -70z m2 -96 c44 -18 46 -20 53 -69 3 -27 17 -68 30
-90 26 -44 91 -111 80 -82 -4 9 -5 17 -2 17 4 0 57 -76 57 -82 0 -2 -66 -2
-147 0 -164 4 -240 -6 -333 -44 -90 -37 -148 -79 -183 -135 -38 -63 -44 -63
-13 0 34 65 103 124 206 174 82 39 90 41 210 47 69 4 97 7 63 8 -112 3 -109 0
-117 154 -5 88 -12 141 -22 155 -31 49 -14 56 29 11 23 -25 63 -53 89 -64z
m758 -57 c0 -11 -58 34 -64 50 -3 7 10 1 29 -14 19 -16 35 -32 35 -36z m-45 3
c3 -5 1 -10 -4 -10 -6 0 -11 5 -11 10 0 6 2 10 4 10 3 0 8 -4 11 -10z m-111
-14 c-3 -8 3 -16 15 -19 12 -3 21 -1 21 4 0 5 -5 9 -12 9 -6 0 -9 2 -6 6 3 3
21 -2 39 -10 19 -9 24 -13 12 -10 -35 8 -27 -4 13 -21 46 -19 67 -19 34 0 -14
8 -20 14 -14 15 5 0 19 -6 30 -14 10 -8 30 -13 44 -10 25 4 25 4 2 -6 -24 -10
-75 -13 -132 -6 -48 6 -49 7 -20 17 23 8 22 8 -7 5 -18 -1 -33 0 -33 3 0 3 -3
16 -6 29 -5 16 -2 22 10 22 9 0 13 -6 10 -14z m496 -6 c-6 -11 -15 -20 -20
-20 -16 0 -11 18 8 29 24 14 24 14 12 -9z m-980 -52 c16 -34 26 -66 23 -71 -9
-14 -32 20 -44 66 -5 21 -13 45 -16 53 -3 8 -2 14 1 14 4 0 20 -28 36 -62z
m1110 1 c-9 -17 -40 -17 -40 0 0 14 23 29 36 24 10 -4 11 -10 4 -24z m-306
-19 c68 -10 84 -20 35 -21 -28 0 -30 -2 -14 -9 11 -5 14 -9 8 -9 -7 -1 -13 -4
-13 -8 0 -5 27 -9 61 -10 48 -2 60 0 56 11 -4 10 7 16 36 20 22 4 47 12 53 17
7 6 23 9 35 7 18 -3 13 -10 -37 -50 -57 -46 -82 -61 -156 -92 -21 -9 -54 -23
-73 -32 -19 -9 -42 -14 -50 -10 -17 6 -45 -2 -45 -13 0 -4 25 -21 55 -36 64
-34 78 -60 46 -87 -13 -9 -20 -22 -17 -27 12 -18 104 -42 143 -37 28 4 32 3
13 -3 l-25 -8 29 -4 c80 -11 0 -67 -108 -76 -39 -3 -74 -11 -78 -17 -5 -8 -8
-7 -8 2 0 6 -9 12 -19 12 -11 0 -22 9 -26 19 -3 11 -13 22 -21 25 -9 3 -12 11
-8 18 5 8 2 9 -9 5 -14 -5 -17 1 -17 39 0 49 -24 113 -47 121 -19 8 -16 33 5
33 13 0 23 15 35 53 22 68 21 74 -3 80 -31 8 -24 35 11 42 26 6 30 10 25 30
-7 27 8 36 44 28 14 -3 51 -9 84 -13z m-269 -10 c-3 -5 -13 -10 -21 -10 -8 0
-12 5 -9 10 3 6 13 10 21 10 8 0 12 -4 9 -10z m75 -20 c0 -5 -5 -10 -11 -10
-5 0 -7 5 -4 10 3 6 8 10 11 10 2 0 4 -4 4 -10z m-56 -36 c-9 -13 -19 -23 -21
-20 -3 3 -1 11 3 18 5 7 9 16 10 21 1 4 2 10 3 13 0 3 5 2 11 -1 6 -4 3 -16
-6 -31z m343 30 c-3 -3 -12 -4 -19 -1 -8 3 -5 6 6 6 11 1 17 -2 13 -5z m-442
-62 c-3 -3 -11 0 -18 7 -9 10 -8 11 6 5 10 -3 15 -9 12 -12z m160 -34 c-1 -12
-7 -24 -13 -26 -7 -2 -10 -7 -7 -12 8 -14 -42 -21 -71 -9 -23 8 -25 12 -14 19
8 6 11 10 6 10 -6 0 7 16 29 35 34 32 40 34 55 20 9 -8 16 -25 15 -37z m-707
-85 c-10 -2 -26 -2 -35 0 -10 3 -2 5 17 5 19 0 27 -2 18 -5z m-76 -10 c-6 -2
-10 -8 -8 -12 3 -4 0 -13 -5 -21 -8 -13 -10 -13 -19 0 -7 11 -8 6 -4 -17 5
-26 3 -33 -9 -33 -21 0 -31 -34 -17 -60 7 -12 7 -20 1 -20 -17 0 -1 -159 24
-246 19 -65 22 -91 16 -130 -5 -27 -9 -41 -10 -31 -1 16 -3 16 -26 1 -14 -9
-25 -12 -25 -6 0 5 -7 13 -16 16 -8 3 -12 2 -9 -4 3 -6 4 -10 1 -10 -22 0 -93
221 -79 244 4 5 1 6 -5 2 -9 -5 -12 6 -12 37 0 32 -5 47 -16 51 -13 5 -14 9
-4 21 7 9 10 27 6 45 -3 20 -1 30 6 30 9 0 9 3 0 12 -17 17 -15 30 6 27 30 -3
38 1 22 11 -11 7 -7 10 18 10 17 0 32 4 32 9 0 5 -10 7 -22 4 -16 -4 -20 -2
-13 5 16 16 55 25 55 12 0 -6 5 -8 10 -5 6 4 8 11 5 16 -4 5 3 9 13 9 11 0 22
6 25 14 3 8 16 16 29 19 32 6 45 6 30 0z m178 3 c0 -3 -4 -8 -10 -11 -5 -3
-10 -1 -10 4 0 6 5 11 10 11 6 0 10 -2 10 -4z m1280 -6 c0 -5 -7 -10 -15 -10
-8 0 -15 5 -15 10 0 6 7 10 15 10 8 0 15 -4 15 -10z m-1358 -12 c-28 -35 -72
-258 -72 -363 0 -29 -3 -67 -7 -85 -6 -32 -6 -32 -25 26 -37 115 -32 342 9
375 7 6 13 17 13 25 0 18 29 33 64 34 21 0 26 -3 18 -12z m667 -67 c6 -10 8
-29 5 -42 -5 -19 -3 -21 5 -9 9 13 11 13 11 -2 0 -39 -35 -13 -37 26 0 16 -8
33 -17 38 -9 5 -16 13 -16 19 0 15 38 -8 49 -30z m147 -211 c6 0 17 -7 24 -15
10 -13 9 -15 -11 -16 -13 0 -18 -3 -11 -6 6 -2 12 -9 12 -14 0 -16 -98 29
-155 72 -22 16 -50 34 -62 39 -13 5 -23 14 -23 19 0 5 48 -11 108 -35 59 -24
112 -44 118 -44z m-1157 33 c1 9 6 17 12 17 8 0 10 -12 6 -35 -4 -22 3 -68 19
-124 26 -95 35 -117 73 -169 22 -31 25 -57 4 -30 -30 38 -83 119 -83 127 0 5
-7 11 -15 15 -8 3 -15 12 -15 20 0 8 -6 21 -14 28 -20 21 -48 79 -41 86 3 4 9
1 14 -6 4 -7 8 9 8 35 1 75 3 80 18 48 9 -20 14 -24 14 -12z m2177 16 c3 -6 2
-15 -4 -21 -7 -7 -14 -3 -21 11 -10 17 -9 21 3 21 8 0 18 -5 22 -11z m-63 -63
c3 -8 1 -16 -5 -18 -6 -2 -3 -9 6 -17 14 -12 16 -11 16 8 0 11 5 21 10 21 6 0
10 -6 10 -14 0 -8 -4 -18 -10 -21 -5 -3 -10 -17 -10 -31 0 -13 -4 -24 -8 -24
-12 0 -32 -46 -32 -71 0 -11 -4 -18 -9 -15 -5 3 -12 -10 -15 -28 -4 -19 -27
-62 -51 -95 -25 -34 -45 -67 -46 -74 0 -7 -3 -6 -6 3 -3 8 -12 23 -20 32 -11
12 -12 21 -4 36 5 10 13 41 17 68 3 27 10 54 14 59 4 6 11 25 15 42 3 18 12
36 19 40 7 5 18 23 26 41 7 19 24 38 37 43 12 4 23 13 23 19 0 15 17 12 23 -4z
m-848 -14 c-3 -3 -11 0 -18 7 -9 10 -8 11 6 5 10 -3 15 -9 12 -12z m-60 -22
c-3 -5 -11 -10 -16 -10 -6 0 -7 5 -4 10 3 6 11 10 16 10 6 0 7 -4 4 -10z
m2135 -78 c0 -18 -10 -37 -32 -55 -52 -46 -69 -52 -85 -31 -25 35 -10 64 31
61 19 -1 32 4 40 18 24 42 46 46 46 7z m-3135 -342 c-7 -50 -94 -251 -95 -220
l-1 25 -10 -25 c-6 -13 -8 -34 -5 -46 8 -29 -4 -114 -15 -114 -5 0 -12 12 -15
28 -4 15 -14 38 -23 52 -25 39 -41 86 -81 235 -23 89 -23 144 1 88 7 -18 19
-33 26 -33 7 0 13 -9 13 -21 0 -11 4 -18 9 -15 5 4 7 39 5 79 -3 39 -6 95 -8
123 -1 28 -12 70 -25 95 -19 38 -4 25 104 -86 119 -124 125 -132 120 -165z
m32 218 c-3 -8 -6 -5 -6 6 -1 11 2 17 5 13 3 -3 4 -12 1 -19z m3167 -126 c101
-31 108 -40 102 -131 -7 -129 -34 -167 -120 -165 -109 3 -156 62 -156 197 0
42 5 88 12 102 11 24 16 26 52 22 23 -2 72 -14 110 -25z m-4283 -184 c14 -7
38 -23 56 -35 17 -13 36 -23 42 -23 6 0 14 -13 17 -28 5 -25 10 -28 32 -25 21
4 24 2 12 -6 -8 -6 -11 -11 -6 -11 6 0 1 -7 -10 -15 -16 -13 -17 -16 -4 -25 9
-6 10 -10 3 -10 -7 0 -15 -15 -19 -34 -9 -49 -58 -112 -112 -144 -40 -23 -58
-27 -117 -27 -79 1 -128 23 -166 76 -43 61 -19 208 44 267 48 46 175 67 228
40z m362 -51 c25 -19 29 -30 29 -72 1 -28 0 -61 -2 -75 l-2 -25 -8 25 c-7 22
-8 20 -10 -15 -1 -22 -4 -34 -7 -27 -2 6 -17 12 -31 12 -33 1 -70 25 -50 33 7
3 -2 9 -21 13 -34 7 -34 7 -10 17 l24 11 -30 4 c-30 4 -59 21 -34 19 40 -1 49
7 14 13 l-40 7 53 2 c28 0 52 6 52 11 0 6 -6 10 -14 10 -31 0 -25 19 11 38 49
25 44 25 76 -1z m410 -77 c-3 -11 -7 -20 -9 -20 -2 0 -4 9 -4 20 0 11 4 20 9
20 5 0 7 -9 4 -20z m37 -83 c7 -23 29 -80 50 -127 21 -47 50 -111 64 -143 14
-32 26 -64 26 -71 0 -7 10 -35 22 -62 12 -27 21 -53 20 -58 -2 -4 1 -13 6 -20
5 -6 24 -49 42 -96 32 -81 67 -152 96 -195 29 -41 2 -83 -29 -47 -20 23 -31
62 -18 62 6 0 11 -4 11 -10 0 -5 5 -10 10 -10 6 0 5 8 -2 20 -8 12 -19 18 -30
14 -17 -5 -67 23 -68 39 0 12 -73 107 -82 107 -4 0 -8 7 -8 16 0 9 -6 14 -12
12 -11 -4 -51 88 -65 150 -3 12 -8 22 -12 22 -20 0 -63 322 -54 402 6 56 18
54 33 -5z m3498 -80 c2 -10 -3 -17 -12 -17 -10 0 -16 9 -16 21 0 24 23 21 28
-4z m-3138 -777 c0 -5 -2 -10 -4 -10 -3 0 -8 5 -11 10 -3 6 -1 10 4 10 6 0 11
-4 11 -10z m1677 -486 c-3 -3 -12 -4 -19 -1 -8 3 -5 6 6 6 11 1 17 -2 13 -5z"/>
<path d="M2435 4180 c-12 -4 -26 -14 -33 -23 -10 -12 -8 -14 15 -9 16 2 35 10
43 17 8 7 22 15 30 18 9 3 5 5 -10 6 -14 0 -34 -4 -45 -9z"/>
<path d="M3145 4140 c3 -5 8 -10 11 -10 2 0 4 5 4 10 0 6 -5 10 -11 10 -5 0
-7 -4 -4 -10z"/>
<path d="M2155 3280 c15 -30 48 -52 95 -64 22 -6 22 -5 -5 11 -16 9 -33 16
-37 15 -5 -1 -18 14 -30 33 -28 43 -44 46 -23 5z"/>
<path d="M1823 2583 c9 -2 23 -2 30 0 6 3 -1 5 -18 5 -16 0 -22 -2 -12 -5z"/>
<path d="M2568 2663 c7 -3 16 -2 19 1 4 3 -2 6 -13 5 -11 0 -14 -3 -6 -6z"/>
<path d="M2450 2636 c0 -2 7 -7 16 -10 8 -3 12 -2 9 4 -6 10 -25 14 -25 6z"/>
<path d="M2386 2607 c3 -10 9 -15 12 -12 3 3 0 11 -7 18 -10 9 -11 8 -5 -6z"/>
<path d="M1442 2215 c0 -16 2 -22 5 -12 2 9 2 23 0 30 -3 6 -5 -1 -5 -18z"/>
<path d="M1571 1694 c0 -11 3 -14 6 -6 3 7 2 16 -1 19 -3 4 -6 -2 -5 -13z"/>
<path d="M1627 615 c-4 -8 -2 -17 3 -20 6 -4 10 3 10 14 0 25 -6 27 -13 6z"/>
<path d="M3063 4509 c22 -11 41 -18 44 -15 4 3 -10 13 -30 21 -51 21 -59 18
-14 -6z"/>
<path d="M3210 4445 c0 -2 10 -10 23 -16 20 -11 21 -11 8 4 -13 16 -31 23 -31
12z"/>
<path d="M3451 4325 c0 -5 6 -21 14 -35 8 -14 14 -20 14 -15 0 6 -6 21 -14 35
-8 14 -14 21 -14 15z"/>
<path d="M4882 3515 c-100 -11 -106 -14 -175 -62 -47 -32 -72 -56 -72 -69 0
-17 10 -20 89 -25 85 -6 90 -8 116 -39 l26 -32 37 45 c32 40 45 47 95 57 31 7
72 18 90 26 30 12 32 16 32 63 l0 51 -67 -1 c-38 -1 -114 -7 -171 -14z"/>
<path d="M4850 2843 c0 -5 -5 -48 -10 -98 -9 -85 1 -260 19 -307 3 -9 28 -40
56 -69 l49 -52 18 39 c38 86 49 277 19 333 -6 11 -30 32 -53 48 -27 17 -50 44
-63 71 -17 38 -35 55 -35 35z"/>
<path d="M3550 2530 c35 -24 54 -31 30 -11 -14 11 -29 21 -35 21 -5 0 -3 -5 5
-10z"/>
<path d="M3245 2500 c-65 -7 -109 -22 -121 -41 -5 -9 0 -10 18 -6 23 6 25 4
20 -18 -2 -14 -8 -25 -12 -25 -4 0 -10 -19 -14 -42 -4 -24 -14 -53 -22 -65
-22 -35 -1 -27 33 12 38 42 53 44 53 8 1 -36 15 -13 24 39 7 39 56 88 88 88 9
0 22 7 29 16 11 14 10 18 -6 30 -10 8 -21 13 -24 12 -3 0 -33 -4 -66 -8z"/>
<path d="M3640 2477 c21 -16 86 -116 95 -145 4 -13 9 -21 12 -18 17 16 -87
177 -114 176 -4 0 -1 -6 7 -13z"/>
<path d="M3762 2170 c0 -19 2 -27 5 -17 2 9 2 25 0 35 -3 9 -5 1 -5 -18z"/>
<path d="M2240 2166 c0 -9 5 -16 10 -16 6 0 10 4 10 9 0 6 -4 13 -10 16 -5 3
-10 -1 -10 -9z"/>
<path d="M2880 2140 c-7 -22 -10 -43 -7 -47 4 -3 7 0 7 8 0 12 2 11 11 -1 8
-11 9 -6 5 20 -3 19 -3 28 1 20 7 -17 33 -45 33 -36 0 3 -8 22 -19 41 l-18 34
-13 -39z"/>
<path d="M2300 2122 c0 -5 7 -13 16 -16 10 -4 14 -1 12 6 -5 15 -28 23 -28 10z"/>
<path d="M3672 2040 c0 -14 2 -19 5 -12 2 6 2 18 0 25 -3 6 -5 1 -5 -13z"/>
<path d="M3771 2014 c0 -11 3 -14 6 -6 3 7 2 16 -1 19 -3 4 -6 -2 -5 -13z"/>
<path d="M3697 1807 c2 -100 7 -227 11 -282 6 -75 8 -31 6 173 0 150 -5 277
-10 282 -6 6 -8 -64 -7 -173z"/>
<path d="M3511 1794 c0 -11 3 -14 6 -6 3 7 2 16 -1 19 -3 4 -6 -2 -5 -13z"/>
<path d="M3682 1540 c0 -14 2 -19 5 -12 2 6 2 18 0 25 -3 6 -5 1 -5 -13z"/>
<path d="M3301 1545 c1 -19 18 -51 18 -35 0 8 -4 22 -9 30 -5 8 -9 11 -9 5z"/>
<path d="M3686 1420 c3 -42 1 -58 -4 -45 -6 13 -8 -11 -5 -65 4 -82 13 -125
13 -61 0 18 3 30 8 28 10 -7 4 157 -7 185 -7 16 -9 4 -5 -42z"/>
<path d="M3690 1030 c13 -23 20 -26 20 -6 0 8 -7 16 -15 20 -13 4 -14 2 -5
-14z"/>
</g>
</svg>
